<svg xmlns="http://www.w3.org/2000/svg" viewBox="0 0 1200 980" width="1200" height="980" font-family="'Segoe UI',system-ui,sans-serif">

  <!-- BACKGROUND -->
  <rect width="1200" height="980" fill="#0f172a"/>

  <!-- ══════════════════════════════════════════════════════
       TITLE
  ══════════════════════════════════════════════════════ -->
  <rect x="0" y="0" width="1200" height="54" fill="#1e293b"/>
  <text x="600" y="23" text-anchor="middle" fill="#f1f5f9" font-size="17" font-weight="700">Merge Plano Financeiro + Plano de Aposentadoria — Arquitetura Final</text>
  <text x="600" y="43" text-anchor="middle" fill="#64748b" font-size="11">01/03/2026 · Decisões consolidadas · Feature aposentadoria extinta · Tudo unificado no Plano</text>

  <!-- ══════════════════════════════════════════════════════
       SECTION 1 — UNIFICAÇÃO
  ══════════════════════════════════════════════════════ -->
  <rect x="0" y="60" width="1200" height="24" fill="#1e3a5f"/>
  <text x="14" y="76" fill="#93c5fd" font-size="12" font-weight="700">① UNIFICAÇÃO DE FEATURES</text>

  <!-- ANTES card -->
  <rect x="12" y="90" width="300" height="162" rx="6" fill="#1e293b" stroke="#475569" stroke-width="1"/>
  <rect x="12" y="90" width="300" height="26" rx="6" fill="#7f1d1d"/>
  <rect x="12" y="103" width="300" height="13" fill="#7f1d1d"/>
  <text x="162" y="108" text-anchor="middle" fill="#fecaca" font-size="11" font-weight="700">ANTES — 2 features separadas</text>

  <!-- Antes: Construir Plano sub-box -->
  <rect x="22" y="122" width="126" height="122" rx="4" fill="#0f172a" stroke="#475569" stroke-width="1"/>
  <text x="85" y="138" text-anchor="middle" fill="#94a3b8" font-size="9" font-weight="700">/construir-plano</text>
  <text x="85" y="153" text-anchor="middle" fill="#64748b" font-size="9">Wizard renda+gastos</text>
  <text x="85" y="167" text-anchor="middle" fill="#64748b" font-size="9">user_financial_profile</text>
  <text x="85" y="181" text-anchor="middle" fill="#64748b" font-size="9">budget_planning</text>
  <text x="85" y="195" text-anchor="middle" fill="#64748b" font-size="9">base_expectativas</text>
  <text x="85" y="209" text-anchor="middle" fill="#64748b" font-size="9">Projeção 12m</text>
  <text x="85" y="236" text-anchor="middle" fill="#22c55e" font-size="9">✓ continua</text>

  <!-- Antes: Personalizar Plano (aposentadoria) sub-box -->
  <rect x="158" y="122" width="142" height="122" rx="4" fill="#0f172a" stroke="#ef4444" stroke-width="1.5" stroke-dasharray="4,3"/>
  <text x="229" y="138" text-anchor="middle" fill="#f87171" font-size="9" font-weight="700">/personalizar-plano</text>
  <text x="229" y="153" text-anchor="middle" fill="#64748b" font-size="9">investimentos_cenarios</text>
  <text x="229" y="167" text-anchor="middle" fill="#64748b" font-size="9">cenario_projecao</text>
  <text x="229" y="181" text-anchor="middle" fill="#64748b" font-size="9">extras_json</text>
  <text x="229" y="195" text-anchor="middle" fill="#64748b" font-size="9">Projeção 30a (frontend)</text>
  <text x="229" y="209" text-anchor="middle" fill="#64748b" font-size="9">Múltiplos cenários</text>
  <text x="229" y="236" text-anchor="middle" fill="#ef4444" font-size="9" font-weight="700">✕ EXTINTA</text>

  <!-- Arrow ANTES → DEPOIS -->
  <line x1="318" y1="171" x2="356" y2="171" stroke="#60a5fa" stroke-width="2"/>
  <polygon points="356,165 368,171 356,177" fill="#60a5fa"/>
  <text x="332" y="188" text-anchor="middle" fill="#3b82f6" font-size="10" font-weight="700">MERGE</text>

  <!-- DEPOIS card -->
  <rect x="374" y="90" width="298" height="162" rx="6" fill="#1e293b" stroke="#22c55e" stroke-width="1.5"/>
  <rect x="374" y="90" width="298" height="26" rx="6" fill="#14532d"/>
  <rect x="374" y="103" width="298" height="13" fill="#14532d"/>
  <text x="523" y="108" text-anchor="middle" fill="#bbf7d0" font-size="11" font-weight="700">DEPOIS — 1 Plano unificado</text>

  <rect x="384" y="122" width="278" height="122" rx="4" fill="#0f172a" stroke="#22c55e" stroke-width="1"/>
  <text x="523" y="140" text-anchor="middle" fill="#4ade80" font-size="11" font-weight="700">/plano</text>
  <text x="523" y="156" text-anchor="middle" fill="#86efac" font-size="9">Wizard 4 telas: renda · gastos · extraordinários · aposentadoria</text>
  <text x="523" y="171" text-anchor="middle" fill="#86efac" font-size="9">user_financial_profile (absorve parâmetros do cenario)</text>
  <text x="523" y="186" text-anchor="middle" fill="#86efac" font-size="9">budget_planning (base) + expectativas_mes (extras)</text>
  <text x="523" y="201" text-anchor="middle" fill="#86efac" font-size="9">Projeção 12m + projeção 30a backend (math puro)</text>
  <text x="523" y="216" text-anchor="middle" fill="#86efac" font-size="9">Gráfico linha do tempo · Slider sensibilidade · Regra 4%</text>
  <text x="523" y="234" text-anchor="middle" fill="#22c55e" font-size="9" font-weight="700">✓ única tela · única fonte de verdade</text>

  <!-- O QUE MORRE card -->
  <rect x="686" y="90" width="502" height="162" rx="6" fill="#1e293b" stroke="#475569" stroke-width="1"/>
  <rect x="686" y="90" width="502" height="26" rx="6" fill="#7f1d1d"/>
  <rect x="686" y="103" width="502" height="13" fill="#7f1d1d"/>
  <text x="937" y="108" text-anchor="middle" fill="#fecaca" font-size="11" font-weight="700">O QUE MORRE / MIGRA</text>

  <!-- Col 1 -->
  <text x="700" y="130" fill="#ef4444" font-size="12">✕</text>
  <text x="718" y="130" fill="#fca5a5" font-size="10" font-weight="700">/mobile/personalizar-plano</text>
  <text x="718" y="144" fill="#64748b" font-size="9">Tela completamente extinta</text>

  <text x="700" y="163" fill="#ef4444" font-size="12">✕</text>
  <text x="718" y="163" fill="#fca5a5" font-size="10" font-weight="700">investimentos_cenarios</text>
  <text x="718" y="177" fill="#64748b" font-size="9">Parâmetros → user_financial_profile</text>

  <text x="700" y="196" fill="#ef4444" font-size="12">✕</text>
  <text x="718" y="196" fill="#fca5a5" font-size="10" font-weight="700">investimentos_cenario_projecao</text>
  <text x="718" y="210" fill="#64748b" font-size="9">Extinta — cálculo on-demand</text>

  <text x="700" y="234" fill="#64748b" font-size="9">Projeção era trivial: 360× juros compostos</text>

  <!-- Col 2 -->
  <text x="890" y="130" fill="#ef4444" font-size="12">✕</text>
  <text x="908" y="130" fill="#fca5a5" font-size="10" font-weight="700">extras_json (investimentos_cenarios)</text>
  <text x="908" y="144" fill="#64748b" font-size="9">Migra → base_expectativas + metadata_json</text>

  <text x="890" y="163" fill="#ef4444" font-size="12">✕</text>
  <text x="908" y="163" fill="#fca5a5" font-size="10" font-weight="700">Múltiplos cenários de aposentadoria</text>
  <text x="908" y="177" fill="#64748b" font-size="9">Um único cenário por usuário — sem simulações</text>

  <text x="890" y="196" fill="#ef4444" font-size="12">✕</text>
  <text x="908" y="196" fill="#fca5a5" font-size="10" font-weight="700">Recorrência mensal em extraordinários</text>
  <text x="908" y="210" fill="#64748b" font-size="9">Mensal = plano base (Tela 2). Mínimo: bimestral</text>

  <text x="908" y="234" fill="#64748b" font-size="9">Frontend-only calc → backend math puro</text>

  <!-- ══════════════════════════════════════════════════════
       SECTION 2 — NOVO WIZARD
  ══════════════════════════════════════════════════════ -->
  <rect x="0" y="264" width="1200" height="24" fill="#1e3a5f"/>
  <text x="14" y="280" fill="#93c5fd" font-size="12" font-weight="700">② NOVO WIZARD — 4 TELAS (/mobile/construir-plano)</text>

  <!-- Wizard connector line -->
  <line x1="12" y1="368" x2="1188" y2="368" stroke="#1e3a5f" stroke-width="18"/>
  <line x1="12" y1="368" x2="1188" y2="368" stroke="#334155" stroke-width="1" stroke-dasharray="6,4"/>

  <!-- TELA 1 -->
  <rect x="12" y="292" width="274" height="160" rx="6" fill="#1e293b" stroke="#3b82f6" stroke-width="2"/>
  <rect x="12" y="292" width="274" height="26" rx="6" fill="#1d4ed8"/>
  <rect x="12" y="305" width="274" height="13" fill="#1d4ed8"/>
  <text x="149" y="310" text-anchor="middle" fill="#dbeafe" font-size="11" font-weight="700">Tela 1 — Renda</text>
  <circle cx="149" cy="291" r="10" fill="#1d4ed8"/>
  <text x="149" y="295" text-anchor="middle" fill="#fff" font-size="10" font-weight="700">1</text>
  <text x="26" y="330" fill="#93c5fd" font-size="10">• Salário / renda mensal líquida</text>
  <text x="26" y="346" fill="#93c5fd" font-size="10">• Ganhos extras de renda</text>
  <text x="36" y="360" fill="#93c5fd" font-size="9">  13º · bônus · PLR</text>
  <text x="26" y="376" fill="#93c5fd" font-size="10">• Recorrência: bimestral pra cima</text>
  <line x1="26" y1="392" x2="272" y2="392" stroke="#1e3a5f" stroke-width="1"/>
  <text x="26" y="407" fill="#475569" font-size="9">→ user_financial_profile.renda</text>
  <text x="26" y="421" fill="#475569" font-size="9">→ base_expectativas (tipo: renda_plano)</text>
  <!-- Arrow -->
  <polygon points="292,368 302,362 302,374" fill="#3b82f6"/>

  <!-- TELA 2 -->
  <rect x="308" y="292" width="274" height="160" rx="6" fill="#1e293b" stroke="#8b5cf6" stroke-width="2"/>
  <rect x="308" y="292" width="274" height="26" rx="6" fill="#5b21b6"/>
  <rect x="308" y="305" width="274" height="13" fill="#5b21b6"/>
  <text x="445" y="310" text-anchor="middle" fill="#ede9fe" font-size="11" font-weight="700">Tela 2 — Gastos Recorrentes</text>
  <circle cx="445" cy="291" r="10" fill="#5b21b6"/>
  <text x="445" y="295" text-anchor="middle" fill="#fff" font-size="10" font-weight="700">2</text>
  <text x="322" y="330" fill="#c4b5fd" font-size="10">• Input por grupo (Moradia, Transp…)</text>
  <rect x="322" y="336" width="252" height="22" rx="3" fill="#2e1065"/>
  <text x="448" y="349" text-anchor="middle" fill="#fbbf24" font-size="9" font-weight="700">⚡ Média 3 meses real visível ao lado</text>
  <text x="322" y="373" fill="#c4b5fd" font-size="10">• Usuário compara com realidade</text>
  <text x="322" y="387" fill="#a78bfa" font-size="9">• Aviso: "Gasto não-mensal? → Tela 3"</text>
  <line x1="322" y1="396" x2="568" y2="396" stroke="#1e3a5f" stroke-width="1"/>
  <text x="322" y="411" fill="#475569" font-size="9">→ budget_planning.valor_planejado (base)</text>
  <text x="322" y="425" fill="#475569" font-size="9">→ plano base intocável por extraordinários</text>
  <!-- Arrow -->
  <polygon points="588,368 598,362 598,374" fill="#8b5cf6"/>

  <!-- TELA 3 -->
  <rect x="604" y="292" width="274" height="160" rx="6" fill="#1e293b" stroke="#f59e0b" stroke-width="2"/>
  <rect x="604" y="292" width="274" height="26" rx="6" fill="#92400e"/>
  <rect x="604" y="305" width="274" height="13" fill="#92400e"/>
  <text x="741" y="310" text-anchor="middle" fill="#fef3c7" font-size="11" font-weight="700">Tela 3 — Gastos Extraordinários</text>
  <circle cx="741" cy="291" r="10" fill="#92400e"/>
  <text x="741" y="295" text-anchor="middle" fill="#fff" font-size="10" font-weight="700">3</text>
  <text x="618" y="330" fill="#fcd34d" font-size="10">• Grupo + Subgrupo: OBRIGATÓRIOS</text>
  <rect x="618" y="336" width="252" height="22" rx="3" fill="#3b1f00"/>
  <text x="744" y="349" text-anchor="middle" fill="#ef4444" font-size="9" font-weight="700">✕ mensal  ✓ bimestral · trimestral · semestral · anual</text>
  <text x="618" y="373" fill="#fcd34d" font-size="10">• Valor · mês início · evolução anual</text>
  <text x="618" y="387" fill="#fbbf24" font-size="9">• Não toca valor_planejado do budget</text>
  <line x1="618" y1="396" x2="864" y2="396" stroke="#1e3a5f" stroke-width="1"/>
  <text x="618" y="411" fill="#475569" font-size="9">→ base_expectativas + metadata_json</text>
  <text x="618" y="425" fill="#475569" font-size="9">→ upsert expectativas_mes (12 meses)</text>
  <!-- Arrow -->
  <polygon points="884,368 894,362 894,374" fill="#f59e0b"/>

  <!-- TELA 4 -->
  <rect x="900" y="292" width="288" height="160" rx="6" fill="#1e293b" stroke="#10b981" stroke-width="2"/>
  <rect x="900" y="292" width="288" height="26" rx="6" fill="#064e3b"/>
  <rect x="900" y="305" width="288" height="13" fill="#064e3b"/>
  <text x="1044" y="310" text-anchor="middle" fill="#d1fae5" font-size="11" font-weight="700">Tela 4 — Aposentadoria + Projeção</text>
  <circle cx="1044" cy="291" r="10" fill="#064e3b"/>
  <text x="1044" y="295" text-anchor="middle" fill="#fff" font-size="10" font-weight="700">4</text>
  <text x="914" y="330" fill="#6ee7b7" font-size="10">• Taxa retorno · Inflação · Patrimônio atual</text>
  <text x="914" y="346" fill="#6ee7b7" font-size="10">• Resumo: renda → gastos → aporte livre</text>
  <rect x="914" y="351" width="260" height="22" rx="3" fill="#022c22"/>
  <text x="1044" y="364" text-anchor="middle" fill="#34d399" font-size="9" font-weight="700">◀▶ Slider: economizar X% → projeção muda</text>
  <text x="914" y="387" fill="#6ee7b7" font-size="9">• Projeção ruim → "Reveja seu plano" ↩</text>
  <line x1="914" y1="396" x2="1174" y2="396" stroke="#1e3a5f" stroke-width="1"/>
  <text x="914" y="411" fill="#475569" font-size="9">→ user_financial_profile (params aposentadoria)</text>
  <text x="914" y="425" fill="#475569" font-size="9">→ projeção 30a: backend math puro, sem DB</text>

  <!-- ══════════════════════════════════════════════════════
       SECTION 3 — ARQUITETURA DE DADOS
  ══════════════════════════════════════════════════════ -->
  <rect x="0" y="466" width="1200" height="24" fill="#1e3a5f"/>
  <text x="14" y="482" fill="#93c5fd" font-size="12" font-weight="700">③ ARQUITETURA DE DADOS — SEPARAÇÃO E PERFORMANCE</text>

  <!-- WRITE PATH card -->
  <rect x="12" y="496" width="578" height="196" rx="6" fill="#1e293b" stroke="#334155" stroke-width="1"/>
  <rect x="12" y="496" width="578" height="26" rx="6" fill="#292524"/>
  <rect x="12" y="509" width="578" height="13" fill="#292524"/>
  <text x="301" y="513" text-anchor="middle" fill="#d6d3d1" font-size="11" font-weight="700">WRITE PATH — ao salvar extraordinário (raro, acontece no save)</text>

  <!-- Step 1: User saves -->
  <rect x="24" y="528" width="130" height="50" rx="4" fill="#1c1917" stroke="#78716c" stroke-width="1"/>
  <text x="89" y="546" text-anchor="middle" fill="#d6d3d1" font-size="10" font-weight="700">Usuário salva</text>
  <text x="89" y="560" text-anchor="middle" fill="#a8a29e" font-size="9">"IPVA R$2.000</text>
  <text x="89" y="572" text-anchor="middle" fill="#a8a29e" font-size="9">Transporte · Março · anual"</text>
  <!-- Arrow -->
  <line x1="160" y1="553" x2="184" y2="553" stroke="#60a5fa" stroke-width="1.5"/>
  <polygon points="183,548 193,553 183,558" fill="#60a5fa"/>

  <!-- Step 2: base_expectativas -->
  <rect x="196" y="528" width="148" height="50" rx="4" fill="#1e293b" stroke="#3b82f6" stroke-width="1.5"/>
  <text x="270" y="546" text-anchor="middle" fill="#93c5fd" font-size="10" font-weight="700">base_expectativas</text>
  <text x="270" y="560" text-anchor="middle" fill="#64748b" font-size="9">+ metadata_json</text>
  <text x="270" y="572" text-anchor="middle" fill="#64748b" font-size="9">(recorrência + evolução)</text>
  <!-- Arrow -->
  <line x1="350" y1="553" x2="374" y2="553" stroke="#60a5fa" stroke-width="1.5"/>
  <polygon points="373,548 383,553 373,558" fill="#60a5fa"/>

  <!-- Step 3: expectativas_mes -->
  <rect x="386" y="528" width="148" height="50" rx="4" fill="#14532d" stroke="#22c55e" stroke-width="1.5"/>
  <text x="460" y="546" text-anchor="middle" fill="#86efac" font-size="10" font-weight="700">expectativas_mes</text>
  <text x="460" y="560" text-anchor="middle" fill="#4ade80" font-size="9">upsert próximos 12m</text>
  <text x="460" y="572" text-anchor="middle" fill="#4ade80" font-size="9">grupo · mês · valor</text>

  <!-- Connector down from expectativas_mes to budget -->
  <line x1="460" y1="578" x2="460" y2="600" stroke="#f59e0b" stroke-width="1.5"/>
  <line x1="460" y1="600" x2="320" y2="600" stroke="#f59e0b" stroke-width="1.5"/>
  <line x1="320" y1="600" x2="320" y2="614" stroke="#f59e0b" stroke-width="1.5"/>
  <polygon points="315,613 320,623 325,613" fill="#f59e0b"/>

  <!-- Step 4: budget_planning (valor_extraordinario) -->
  <rect x="196" y="624" width="248" height="50" rx="4" fill="#3b1f00" stroke="#f59e0b" stroke-width="1.5"/>
  <text x="320" y="642" text-anchor="middle" fill="#fde68a" font-size="10" font-weight="700">budget_planning</text>
  <text x="320" y="657" text-anchor="middle" fill="#fbbf24" font-size="9">valor_extraordinario (coluna separada)</text>
  <text x="320" y="671" text-anchor="middle" fill="#fbbf24" font-size="9">valor_planejado = NUNCA tocado por extras</text>

  <text x="89" y="662" text-anchor="middle" fill="#dc2626" font-size="10" font-weight="700">⚠ Cara</text>
  <text x="89" y="676" text-anchor="middle" fill="#94a3b8" font-size="9">mas rara — só no save</text>

  <!-- READ PATH card -->
  <rect x="606" y="496" width="582" height="196" rx="6" fill="#1e293b" stroke="#334155" stroke-width="1"/>
  <rect x="606" y="496" width="582" height="26" rx="6" fill="#052e16"/>
  <rect x="606" y="509" width="582" height="13" fill="#052e16"/>
  <text x="897" y="513" text-anchor="middle" fill="#bbf7d0" font-size="11" font-weight="700">READ PATH — get_cashflow / get_orcamento (hot path — toda request)</text>

  <!-- Source 1 -->
  <rect x="620" y="528" width="210" height="50" rx="4" fill="#1e293b" stroke="#3b82f6" stroke-width="1.5"/>
  <text x="725" y="546" text-anchor="middle" fill="#93c5fd" font-size="11" font-weight="700">budget_planning</text>
  <text x="725" y="560" text-anchor="middle" fill="#64748b" font-size="9">valor_planejado (base recorrente)</text>
  <text x="725" y="572" text-anchor="middle" fill="#64748b" font-size="9">1 query · indexed por user+mes</text>

  <!-- Source 2 -->
  <rect x="850" y="528" width="210" height="50" rx="4" fill="#14532d" stroke="#22c55e" stroke-width="1.5"/>
  <text x="955" y="546" text-anchor="middle" fill="#86efac" font-size="11" font-weight="700">expectativas_mes</text>
  <text x="955" y="560" text-anchor="middle" fill="#4ade80" font-size="9">extras materializados (já expandidos)</text>
  <text x="955" y="572" text-anchor="middle" fill="#4ade80" font-size="9">1 query · indexed por user+mes</text>

  <!-- Lines to merge -->
  <line x1="725" y1="578" x2="725" y2="604" stroke="#60a5fa" stroke-width="1.5"/>
  <line x1="955" y1="578" x2="955" y2="604" stroke="#60a5fa" stroke-width="1.5"/>
  <line x1="725" y1="604" x2="955" y2="604" stroke="#60a5fa" stroke-width="1.5"/>
  <line x1="840" y1="604" x2="840" y2="618" stroke="#60a5fa" stroke-width="1.5"/>
  <polygon points="835,617 840,627 845,617" fill="#60a5fa"/>

  <!-- Merge box -->
  <rect x="716" y="628" width="248" height="42" rx="4" fill="#1e3a5f" stroke="#60a5fa" stroke-width="2"/>
  <text x="840" y="646" text-anchor="middle" fill="#93c5fd" font-size="11" font-weight="700">merge em memória por grupo+mês</text>
  <text x="840" y="661" text-anchor="middle" fill="#60a5fa" font-size="10">total = valor_planejado + extras</text>

  <!-- Performance badge -->
  <rect x="618" y="632" width="90" height="38" rx="4" fill="#064e3b" stroke="#22c55e" stroke-width="1.5"/>
  <text x="663" y="647" text-anchor="middle" fill="#4ade80" font-size="12" font-weight="700">O(1)</text>
  <text x="663" y="663" text-anchor="middle" fill="#22c55e" font-size="9">sem JOIN</text>

  <rect x="970" y="632" width="210" height="38" rx="4" fill="#064e3b" stroke="#22c55e" stroke-width="1"/>
  <text x="1075" y="647" text-anchor="middle" fill="#4ade80" font-size="10" font-weight="700">Antes: ~60 queries/request</text>
  <text x="1075" y="663" text-anchor="middle" fill="#22c55e" font-size="9">Depois: 2 queries + merge em memória</text>

  <!-- ══════════════════════════════════════════════════════
       SECTION 4 — TABELAS
  ══════════════════════════════════════════════════════ -->
  <rect x="0" y="704" width="1200" height="24" fill="#1e3a5f"/>
  <text x="14" y="720" fill="#93c5fd" font-size="12" font-weight="700">④ TABELAS — STATUS APÓS MERGE</text>

  <!-- investimentos_cenarios — MORRE -->
  <rect x="12" y="734" width="192" height="80" rx="4" fill="#1e293b" stroke="#ef4444" stroke-width="1.5"/>
  <rect x="12" y="734" width="192" height="22" rx="4" fill="#7f1d1d"/>
  <rect x="12" y="745" width="192" height="11" fill="#7f1d1d"/>
  <text x="108" y="749" text-anchor="middle" fill="#fca5a5" font-size="9" font-weight="700">investimentos_cenarios ✕</text>
  <text x="108" y="768" text-anchor="middle" fill="#ef4444" font-size="9">DEPRECIADA</text>
  <text x="108" y="783" text-anchor="middle" fill="#64748b" font-size="9">parâmetros → user_financial_profile</text>
  <text x="108" y="798" text-anchor="middle" fill="#64748b" font-size="9">extras → base_expectativas</text>

  <!-- cenario_projecao — MORRE -->
  <rect x="212" y="734" width="192" height="80" rx="4" fill="#1e293b" stroke="#ef4444" stroke-width="1.5"/>
  <rect x="212" y="734" width="192" height="22" rx="4" fill="#7f1d1d"/>
  <rect x="212" y="745" width="192" height="11" fill="#7f1d1d"/>
  <text x="308" y="749" text-anchor="middle" fill="#fca5a5" font-size="9" font-weight="700">cenario_projecao ✕</text>
  <text x="308" y="768" text-anchor="middle" fill="#ef4444" font-size="9">EXTINTA</text>
  <text x="308" y="783" text-anchor="middle" fill="#64748b" font-size="9">cálculo on-demand no plano service</text>
  <text x="308" y="798" text-anchor="middle" fill="#64748b" font-size="9">math puro — zero queries</text>

  <!-- user_financial_profile — CRESCE -->
  <rect x="412" y="734" width="192" height="80" rx="4" fill="#1e293b" stroke="#f59e0b" stroke-width="1.5"/>
  <rect x="412" y="734" width="192" height="22" rx="4" fill="#78350f"/>
  <rect x="412" y="745" width="192" height="11" fill="#78350f"/>
  <text x="508" y="749" text-anchor="middle" fill="#fde68a" font-size="9" font-weight="700">user_financial_profile ↑</text>
  <text x="508" y="768" text-anchor="middle" fill="#fbbf24" font-size="9">ABSORVE cenarios</text>
  <text x="508" y="783" text-anchor="middle" fill="#64748b" font-size="9">taxa · inflação · patrimônio</text>
  <text x="508" y="798" text-anchor="middle" fill="#64748b" font-size="9">idade_aposentadoria</text>

  <!-- base_expectativas — ESTENDE -->
  <rect x="612" y="734" width="192" height="80" rx="4" fill="#1e293b" stroke="#f59e0b" stroke-width="1.5"/>
  <rect x="612" y="734" width="192" height="22" rx="4" fill="#78350f"/>
  <rect x="612" y="745" width="192" height="11" fill="#78350f"/>
  <text x="708" y="749" text-anchor="middle" fill="#fde68a" font-size="9" font-weight="700">base_expectativas ↑</text>
  <text x="708" y="768" text-anchor="middle" fill="#fbbf24" font-size="9">+ metadata_json (recorrência+evolução)</text>
  <text x="708" y="783" text-anchor="middle" fill="#64748b" font-size="9">+ subgrupo (nullable)</text>
  <text x="708" y="798" text-anchor="middle" fill="#64748b" font-size="9">absorve extras_json migração</text>

  <!-- budget_planning — ESTENDE -->
  <rect x="812" y="734" width="192" height="80" rx="4" fill="#1e293b" stroke="#f59e0b" stroke-width="1.5"/>
  <rect x="812" y="734" width="192" height="22" rx="4" fill="#78350f"/>
  <rect x="812" y="745" width="192" height="11" fill="#78350f"/>
  <text x="908" y="749" text-anchor="middle" fill="#fde68a" font-size="9" font-weight="700">budget_planning ↑</text>
  <text x="908" y="768" text-anchor="middle" fill="#fbbf24" font-size="9">+ valor_extraordinario (nullable)</text>
  <text x="908" y="783" text-anchor="middle" fill="#64748b" font-size="9">valor_planejado = base (Tela 2)</text>
  <text x="908" y="798" text-anchor="middle" fill="#64748b" font-size="9">nunca modificado por extras</text>

  <!-- expectativas_mes — NOVA -->
  <rect x="1012" y="734" width="176" height="80" rx="4" fill="#1e293b" stroke="#22c55e" stroke-width="2"/>
  <rect x="1012" y="734" width="176" height="22" rx="4" fill="#14532d"/>
  <rect x="1012" y="745" width="176" height="11" fill="#14532d"/>
  <text x="1100" y="749" text-anchor="middle" fill="#bbf7d0" font-size="9" font-weight="700">expectativas_mes ★ NOVA</text>
  <text x="1100" y="768" text-anchor="middle" fill="#22c55e" font-size="9">extras materializados (12m)</text>
  <text x="1100" y="783" text-anchor="middle" fill="#4ade80" font-size="9">leitura O(1) · hot path</text>
  <text x="1100" y="798" text-anchor="middle" fill="#4ade80" font-size="9">user_id · mes · grupo · valor</text>

  <!-- ══════════════════════════════════════════════════════
       SECTION 5 — REGRAS + LEGENDA
  ══════════════════════════════════════════════════════ -->
  <rect x="0" y="826" width="1200" height="24" fill="#1e3a5f"/>
  <text x="14" y="842" fill="#93c5fd" font-size="12" font-weight="700">⑤ REGRAS DE PRODUTO</text>

  <!-- Rule 1 -->
  <rect x="12" y="856" width="286" height="66" rx="4" fill="#1e293b" stroke="#ef4444" stroke-width="1"/>
  <text x="155" y="873" text-anchor="middle" fill="#fca5a5" font-size="10" font-weight="700">Recorrência Extraordinários</text>
  <text x="155" y="890" text-anchor="middle" fill="#ef4444" font-size="11">✕ mensal  →  vai para Tela 2</text>
  <text x="155" y="908" text-anchor="middle" fill="#94a3b8" font-size="9">bimestral · trimestral · semestral · anual · único</text>

  <!-- Rule 2 -->
  <rect x="306" y="856" width="286" height="66" rx="4" fill="#1e293b" stroke="#f59e0b" stroke-width="1"/>
  <text x="449" y="873" text-anchor="middle" fill="#fde68a" font-size="10" font-weight="700">Campos Obrigatórios — Extras</text>
  <text x="449" y="890" text-anchor="middle" fill="#fbbf24" font-size="10">grupo + subgrupo + valor + mês + recorrência</text>
  <text x="449" y="908" text-anchor="middle" fill="#94a3b8" font-size="9">sem grupo = sem update budget = bloqueado na UI</text>

  <!-- Rule 3 -->
  <rect x="600" y="856" width="286" height="66" rx="4" fill="#1e293b" stroke="#22c55e" stroke-width="1"/>
  <text x="743" y="873" text-anchor="middle" fill="#86efac" font-size="10" font-weight="700">Proteção do Plano Base</text>
  <text x="743" y="890" text-anchor="middle" fill="#4ade80" font-size="10">budget_planning.valor_planejado = Wizard Tela 2</text>
  <text x="743" y="908" text-anchor="middle" fill="#94a3b8" font-size="9">extras nunca sobrescrevem o base · rollback grátis</text>

  <!-- Rule 4 -->
  <rect x="894" y="856" width="294" height="66" rx="4" fill="#1e293b" stroke="#3b82f6" stroke-width="1"/>
  <text x="1041" y="873" text-anchor="middle" fill="#93c5fd" font-size="10" font-weight="700">Âncora de Realidade — Tela 2</text>
  <text x="1041" y="890" text-anchor="middle" fill="#60a5fa" font-size="10">média 3 meses ao lado de cada grupo</text>
  <text x="1041" y="908" text-anchor="middle" fill="#94a3b8" font-size="9">usuário decide com dados reais na frente</text>

  <!-- LEGEND -->
  <rect x="12" y="932" width="1176" height="36" rx="4" fill="#1e293b" stroke="#334155" stroke-width="1"/>
  <rect x="26" y="944" width="12" height="12" rx="2" fill="#7f1d1d" stroke="#ef4444" stroke-width="1"/>
  <text x="46" y="954" fill="#94a3b8" font-size="10">Morre / Depreciado</text>
  <rect x="180" y="944" width="12" height="12" rx="2" fill="#78350f" stroke="#f59e0b" stroke-width="1"/>
  <text x="200" y="954" fill="#94a3b8" font-size="10">Alterado / Estendido</text>
  <rect x="340" y="944" width="12" height="12" rx="2" fill="#14532d" stroke="#22c55e" stroke-width="1.5"/>
  <text x="360" y="954" fill="#94a3b8" font-size="10">Novo / Criado</text>
  <rect x="464" y="944" width="12" height="12" rx="2" fill="#1d4ed8" stroke="#3b82f6" stroke-width="1"/>
  <text x="484" y="954" fill="#94a3b8" font-size="10">Mantido</text>
  <rect x="566" y="944" width="12" height="12" rx="2" fill="#064e3b" stroke="#22c55e" stroke-width="1"/>
  <text x="586" y="954" fill="#94a3b8" font-size="10">Performance</text>
  <text x="900" y="954" fill="#475569" font-size="9">FinUp · Merge Plano + Aposentadoria · 01/03/2026</text>

</svg>
